<svg xmlns="http://www.w3.org/2000/svg" style="display:none">
<symbol id="arcade-arcadestar" viewBox="0 0 96 96"><path fill="currentColor" d="M48 82.1C29.2 82.1 13.9 66.8 13.9 48C13.9 29.2 29.2 13.9 48 13.9C66.8 13.9 82.1 29.2 82.1 48C82.1 66.8 66.8 82.1 48 82.1L48 82.1ZM48 10.8C27.5 10.8 10.8 27.5 10.8 48C10.8 68.5 27.5 85.2 48 85.2C68.5 85.2 85.2 68.5 85.2 48C85.2 27.5 68.5 10.8 48 10.8L48 10.8Z"/>
<path fill="currentColor" d="M36.3 64.5L40.8 50.8L29.1 42.3L43.5 42.3L48 28.7L52.5 42.4L66.9 42.4L55.2 50.9L59.7 64.6L48 56.1L36.3 64.5L36.3 64.5ZM73.2 40.3C73 39.8 72.5 39.4 72 39.4L54.6 39.4L49.2 22.9C49.1 22.4 48.6 22 48 22C47.4 22 46.9 22.4 46.8 22.9L41.4 39.4L24.1 39.4C23.5 39.4 23 39.8 22.9 40.3C22.7 40.8 22.9 41.4 23.4 41.8L37.4 52L32 68.5C31.9 68.9 31.9 69.3 32.2 69.7C32.4 70 32.8 70.2 33.3 70.2C33.6 70.2 33.8 70.1 34.1 69.9L48.1 59.7L62.1 69.9C62.3 70.1 62.6 70.2 62.9 70.2C63.3 70.2 63.7 70 64 69.7C64.2 69.4 64.3 68.9 64.2 68.5L58.7 52L72.7 41.8C73.2 41.4 73.3 40.9 73.2 40.3L73.2 40.3Z"/></symbol>
<symbol id="arcade-arcadestarfilled" viewBox="0 0 96 96"><path fill="currentColor" d="M48 82.1C29.2 82.1 13.9 66.8 13.9 48C13.9 29.2 29.2 13.9 48 13.9C66.8 13.9 82.1 29.2 82.1 48C82.1 66.8 66.8 82.1 48 82.1L48 82.1ZM48 10.8C27.5 10.8 10.8 27.5 10.8 48C10.8 68.5 27.5 85.2 48 85.2C68.5 85.2 85.2 68.5 85.2 48C85.2 27.5 68.5 10.8 48 10.8L48 10.8Z"/>
<path fill="currentColor" d="M73.2 40.3C73 39.8 72.5 39.4 72 39.4L54.6 39.4L49.2 22.9C49.1 22.4 48.6 22 48 22C47.4 22 46.9 22.4 46.8 22.9L41.4 39.4L24.1 39.4C23.5 39.4 23 39.8 22.9 40.3C22.7 40.8 22.9 41.4 23.4 41.8L37.4 52L32 68.5C31.9 68.9 31.9 69.3 32.2 69.7C32.4 70 32.8 70.2 33.3 70.2C33.6 70.2 33.8 70.1 34.1 69.9L48.1 59.7L62.1 69.9C62.3 70.1 62.6 70.2 62.9 70.2C63.3 70.2 63.7 70 64 69.7C64.2 69.4 64.3 68.9 64.2 68.5L58.7 52L72.7 41.8C73.2 41.4 73.3 40.9 73.2 40.3L73.2 40.3Z"/></symbol>
</svg>
