<svg xmlns="http://www.w3.org/2000/svg" style="display:none">
<symbol id="honors-roundhonor-mostassists" viewBox="0 0 512 128"><path fill="none" stroke="currentColor" stroke-width="1.553" stroke-linejoin="round" d="M214 45.7L208 45.7C208 45.7 210.2 43.5 207 34.7C207 34.7 203 25.4 214.1 24L255.9 24L255.9 32L248 32C248 32 229.7 32.8 229.6 45.6L226.4 45.6"/>
<path fill="none" stroke="currentColor" stroke-width="1.553" stroke-linejoin="round" d="M356.3 48.2L356.3 44C356.3 32.9 330.8 34.1 330.8 34.1L285.5 34.1C281.7 34.1 278.3 35.7 276.5 38.8L268.8 38.8"/>
<path fill="none" stroke="currentColor" stroke-width="1.553" stroke-linejoin="round" d="M271.3 40.1L271.3 26.6L362.7 26.6L362.7 14.5L370.4 14.5L370.4 26.6L370.9 26.6L375.1 26.6L381.7 25.3L381.7 53.9L375.3 52.6L371.4 52.6L366.2 52.7L366.2 59.2L361.7 60.7L359 97.1L339.7 97.1L336.3 84.7C335.8 83.1 336.6 81.3 336.6 81.3L338 79C339 77.8 338.4 76.2 338.4 76.2L336.3 70.1L317.5 61"/>
<path fill="none" stroke="currentColor" stroke-width="1.553" stroke-linejoin="round" d="M363.2 14.5L369.8 14.5L369.8 29.8L363.2 29.8L363.2 14.5Z"/>
<path fill="none" stroke="currentColor" stroke-width="1.553" stroke-linejoin="round" d="M255.8 28.2L270.5 28.2"/>
<path fill="none" stroke="currentColor" stroke-width="1.553" stroke-linejoin="round" d="M255.8 32.6L270.5 32.6"/>
<path fill="none" stroke="currentColor" stroke-width="1.553" stroke-linejoin="round" d="M210.1 46.7L210.1 53.8C210.1 53.8 218.6 57.3 216.5 63.1L204.9 79.8L201.8 79.9L195.9 79.9L195.9 101.7L216.8 101.7L234.2 68.8C234.2 68.8 237.1 62.8 242.7 62.6L256.2 62.6C256.2 62.6 257.9 59.1 264.1 59.1L279.3 59.1L279.3 55.1"/>
<path fill="none" stroke="currentColor" stroke-width="1.553" stroke-linejoin="round" d="M230.7 76.8C230.7 76.8 234.8 79.7 237.8 80.1C240.4 80.4 248.3 80.1 248.3 80.1C248.3 80.1 256.4 78.8 256.4 72.4L256.4 62.6"/>
<path fill="none" stroke="currentColor" stroke-width="1.553" stroke-linejoin="round" d="M241.7 62.6C241.7 62.6 250.1 65.7 250.2 70.6C250.2 70.6 250.3 75.1 246.2 75.1L239.9 75.1C239.9 75.1 232.6 74.8 233.5 70.2"/>
<path fill="currentColor" stroke="currentColor" stroke-width="1" d="M236.9 65.7C236.9 65.7 236.6 70 241.7 69.8C242.5 69.8 242 71.3 240.7 71.5C240.7 71.5 236.4 72.1 235 68.4L236.9 65.7L236.9 65.7Z"/>
<path fill="none" stroke="currentColor" stroke-width="1.553" stroke-linejoin="round" opacity="0.5" d="M235.2 36.5L240.8 36.5C242.5 36.5 243.9 37.8 243.9 39.3L243.9 39.3C243.9 40.8 242.5 42.1 240.8 42.1L230.5 42.1"/>
<path fill="none" stroke="currentColor" stroke-width="1.553" stroke-linejoin="round" d="M229.4 45.6L267.6 45.6"/>
<path fill="none" stroke="currentColor" stroke-width="1.553" stroke-linejoin="round" stroke-linecap="round" d="M355.9 47.5L315.1 47.5L315.1 50.1L297.2 50.1L290.1 55.5L282.1 55.5C276.2 55.5 274.2 52.9 273.5 51.1L268 51.1L268 38.8L271.1 38.8"/>
<path fill="none" stroke="currentColor" stroke-width="1.553" stroke-linejoin="round" d="M256.2 32.3L256.2 45"/>
<path fill="none" stroke="currentColor" stroke-width="1.553" stroke-linejoin="round" d="M228.7 56.9C228.7 57.1 228.8 57.3 228.8 57.5C228.8 57.5 229.9 62.7 236.4 64.7"/>
<path fill="none" stroke="currentColor" stroke-width="1.553" stroke-linejoin="round" d="M228.7 53C229.5 49.7 232 47.9 232 47.9C232 47.9 233.4 46.4 236.9 46.3"/>
<path fill="none" stroke="currentColor" stroke-width="1.553" stroke-linejoin="round" stroke-linecap="round" d="M236.4 52.1C238.1 52.1 239.5 53.5 239.5 55.2C239.5 56.9 238.1 58.3 236.4 58.3"/>
<path fill="none" stroke="currentColor" stroke-width="1.553" stroke-linejoin="round" stroke-linecap="round" d="M225 56.5C224.3 56.5 223.7 55.9 223.7 55.2C223.7 54.5 224.2 54 224.8 53.9"/>
<path fill="none" stroke="currentColor" stroke-width="1.553" stroke-linejoin="round" stroke-linecap="round" d="M224.9 53.8L236.2 52.1"/>
<path fill="none" stroke="currentColor" stroke-width="1.553" stroke-linejoin="round" stroke-linecap="round" d="M225 56.5L236.2 58.2"/>
<path fill="currentColor" stroke="currentColor" stroke-width="1" d="M237.8 55.2C237.8 56.084 237.084 56.8 236.2 56.8C235.316 56.8 234.6 56.084 234.6 55.2C234.6 54.316 235.316 53.6 236.2 53.6C237.084 53.6 237.8 54.316 237.8 55.2L237.8 55.2Z"/>
<path fill="currentColor" stroke="currentColor" stroke-width="1" d="M198.1 28.5C198.1 29.163 197.563 29.7 196.9 29.7C196.237 29.7 195.7 29.163 195.7 28.5C195.7 27.837 196.237 27.3 196.9 27.3C197.563 27.3 198.1 27.837 198.1 28.5L198.1 28.5Z"/>
<path fill="currentColor" stroke="currentColor" stroke-width="1" d="M159.3 80.8C159.3 81.187 158.987 81.5 158.6 81.5C158.213 81.5 157.9 81.187 157.9 80.8C157.9 80.413 158.213 80.1 158.6 80.1C158.987 80.1 159.3 80.413 159.3 80.8L159.3 80.8Z"/>
<path fill="none" stroke="currentColor" stroke-width="1.553" stroke-linejoin="round" opacity="0.5" d="M210.4 50.5C210.4 50.5 214.9 53 217 54.6C217 54.6 220.5 55.9 222 53.3L222 46"/>
<path fill="none" stroke="currentColor" stroke-width="1.553" stroke-linejoin="round" d="M274 39.7L274 50.6"/>
<path fill="none" stroke="currentColor" stroke-width="1.553" stroke-linejoin="round" d="M335.6 39.5C335.6 40.4 334.9 41.1 334 41.1L297.6 41.1C296.7 41.1 296 40.4 296 39.5L296 39.2C296 38.3 296.7 37.6 297.6 37.6L334 37.6C334.9 37.6 335.6 38.3 335.6 39.2L335.6 39.5L335.6 39.5Z"/>
<path fill="none" stroke="currentColor" stroke-width="1.553" stroke-linejoin="round" d="M357.4 55L357.4 49.6C357.4 47.6 359 45.2 360.9 45.2L360.9 45.2C362.9 45.2 364.4 47.7 364.4 49.6L364.4 55.5"/>
<path fill="currentColor" stroke="currentColor" stroke-width="1" d="M216.6 34.9L224 34.9L224 40.1L216.6 40.1L216.6 34.9Z"/>
<path fill="none" stroke="currentColor" stroke-width="1.553" stroke-linejoin="round" d="M226.4 45.2C226.4 46 225.7 46.6 224.8 46.6L215.4 46.6C214.5 46.6 213.8 46 213.8 45.2L213.8 39.1C213.8 38.3 214.5 37.7 215.4 37.7L224.8 37.7C225.7 37.7 226.4 38.3 226.4 39.1L226.4 45.2L226.4 45.2Z"/>
<path fill="none" stroke="currentColor" stroke-width="1.553" stroke-linejoin="round" d="M163.9 82.2L195.4 82.2"/>
<path fill="none" stroke="currentColor" stroke-width="1.553" stroke-linejoin="round" d="M148.2 85.2L158.1 79.2C158.9 78.8 159.9 79 160.4 79.8L160.4 79.8C160.8 80.6 160.6 81.6 159.8 82.1L149.5 87.4L148.2 85.2L148.2 85.2Z"/>
<path fill="none" stroke="currentColor" stroke-width="1.553" stroke-linejoin="round" d="M196.4 101.7L184.3 101.7L183.8 104.8L165.5 108.4L161.5 111.5L132.4 113.4C130 113.1 130.8 110.6 130.7 108.4C131.3 103.1 131.6 99.1 131.6 99.1L130.4 96.5L131.2 80.5L141.3 80.5L148.8 76.5L163.3 76.5L163.3 81.9L163.3 91.4L195.4 91.4"/>
<path fill="none" stroke="currentColor" stroke-width="1.553" stroke-linejoin="round" stroke-linecap="round" d="M206.6 28.8C206.6 28.8 199.6 24.5 197.7 24.2C195.5 24.2 193.2 26.1 193.2 28.4C193.2 30.7 195 32.4 197.2 32.4C198.6 32.4 199.9 31.7 200.6 30.5L206.2 34"/>
<path fill="none" stroke="currentColor" stroke-width="1.553" stroke-linejoin="round" d="M290.1 55.5L290.1 61.2L361.3 61.2"/>
<path fill="none" stroke="currentColor" stroke-width="1.553" stroke-linejoin="round" d="M291.4 54.9L365.4 54.9"/>
<path fill="none" stroke="currentColor" stroke-width="1.553" stroke-linejoin="round" d="M201.1 79.7L201.1 92.4L213.3 92.4C213.3 92.4 219 92.7 219.1 97.3"/>
<path fill="none" stroke="currentColor" stroke-width="1.553" stroke-linejoin="round" d="M354.9 67.4L346.7 67.4C346.7 67.4 347.7 69.6 347.3 71.2C346.8 73 344 74.1 344 74.1L348.1 89.1C348.5 91.4 350.7 91.5 350.7 91.5L353.8 91.6L354.9 67.4L354.9 67.4Z"/></symbol>
<symbol id="honors-roundhonor-mostdamagedealt" viewBox="0 0 512 128"><path fill="none" stroke="currentColor" stroke-width="1.553" stroke-linejoin="round" d="M214 45.7L208 45.7C208 45.7 210.2 43.5 207 34.7C207 34.7 203 25.4 214.1 24L255.9 24L255.9 32L248 32C248 32 229.7 32.8 229.6 45.6L226.4 45.6"/>
<path fill="none" stroke="currentColor" stroke-width="1.553" stroke-linejoin="round" d="M356.3 48.2L356.3 44C356.3 32.9 330.8 34.1 330.8 34.1L285.5 34.1C281.7 34.1 278.3 35.7 276.5 38.8L268.8 38.8"/>
<path fill="none" stroke="currentColor" stroke-width="1.553" stroke-linejoin="round" d="M271.3 40.1L271.3 26.6L362.7 26.6L362.7 14.5L370.4 14.5L370.4 26.6L370.9 26.6L375.1 26.6L381.7 25.3L381.7 53.9L375.3 52.6L371.4 52.6L366.2 52.7L366.2 59.2L361.7 60.7L359 97.1L339.7 97.1L336.3 84.7C335.8 83.1 336.6 81.3 336.6 81.3L338 79C339 77.8 338.4 76.2 338.4 76.2L336.3 70.1L317.5 61"/>
<path fill="none" stroke="currentColor" stroke-width="1.553" stroke-linejoin="round" d="M363.2 14.5L369.8 14.5L369.8 29.8L363.2 29.8L363.2 14.5Z"/>
<path fill="none" stroke="currentColor" stroke-width="1.553" stroke-linejoin="round" d="M255.8 28.2L270.5 28.2"/>
<path fill="none" stroke="currentColor" stroke-width="1.553" stroke-linejoin="round" d="M255.8 32.6L270.5 32.6"/>
<path fill="none" stroke="currentColor" stroke-width="1.553" stroke-linejoin="round" d="M210.1 46.7L210.1 53.8C210.1 53.8 218.6 57.3 216.5 63.1L204.9 79.8L201.8 79.9L195.9 79.9L195.9 101.7L216.8 101.7L234.2 68.8C234.2 68.8 237.1 62.8 242.7 62.6L256.2 62.6C256.2 62.6 257.9 59.1 264.1 59.1L279.3 59.1L279.3 55.1"/>
<path fill="none" stroke="currentColor" stroke-width="1.553" stroke-linejoin="round" d="M230.7 76.8C230.7 76.8 234.8 79.7 237.8 80.1C240.4 80.4 248.3 80.1 248.3 80.1C248.3 80.1 256.4 78.8 256.4 72.4L256.4 62.6"/>
<path fill="none" stroke="currentColor" stroke-width="1.553" stroke-linejoin="round" d="M241.7 62.6C241.7 62.6 250.1 65.7 250.2 70.6C250.2 70.6 250.3 75.1 246.2 75.1L239.9 75.1C239.9 75.1 232.6 74.8 233.5 70.2"/>
<path fill="currentColor" stroke="currentColor" stroke-width="1" d="M236.9 65.7C236.9 65.7 236.6 70 241.7 69.8C242.5 69.8 242 71.3 240.7 71.5C240.7 71.5 236.4 72.1 235 68.4L236.9 65.7L236.9 65.7Z"/>
<path fill="none" stroke="currentColor" stroke-width="1.553" stroke-linejoin="round" opacity="0.5" d="M235.2 36.5L240.8 36.5C242.5 36.5 243.9 37.8 243.9 39.3L243.9 39.3C243.9 40.8 242.5 42.1 240.8 42.1L230.5 42.1"/>
<path fill="none" stroke="currentColor" stroke-width="1.553" stroke-linejoin="round" d="M229.4 45.6L267.6 45.6"/>
<path fill="none" stroke="currentColor" stroke-width="1.553" stroke-linejoin="round" stroke-linecap="round" d="M355.9 47.5L315.1 47.5L315.1 50.1L297.2 50.1L290.1 55.5L282.1 55.5C276.2 55.5 274.2 52.9 273.5 51.1L268 51.1L268 38.8L271.1 38.8"/>
<path fill="none" stroke="currentColor" stroke-width="1.553" stroke-linejoin="round" d="M256.2 32.3L256.2 45"/>
<path fill="none" stroke="currentColor" stroke-width="1.553" stroke-linejoin="round" d="M228.7 56.9C228.7 57.1 228.8 57.3 228.8 57.5C228.8 57.5 229.9 62.7 236.4 64.7"/>
<path fill="none" stroke="currentColor" stroke-width="1.553" stroke-linejoin="round" d="M228.7 53C229.5 49.7 232 47.9 232 47.9C232 47.9 233.4 46.4 236.9 46.3"/>
<path fill="none" stroke="currentColor" stroke-width="1.553" stroke-linejoin="round" stroke-linecap="round" d="M236.4 52.1C238.1 52.1 239.5 53.5 239.5 55.2C239.5 56.9 238.1 58.3 236.4 58.3"/>
<path fill="none" stroke="currentColor" stroke-width="1.553" stroke-linejoin="round" stroke-linecap="round" d="M225 56.5C224.3 56.5 223.7 55.9 223.7 55.2C223.7 54.5 224.2 54 224.8 53.9"/>
<path fill="none" stroke="currentColor" stroke-width="1.553" stroke-linejoin="round" stroke-linecap="round" d="M224.9 53.8L236.2 52.1"/>
<path fill="none" stroke="currentColor" stroke-width="1.553" stroke-linejoin="round" stroke-linecap="round" d="M225 56.5L236.2 58.2"/>
<path fill="currentColor" stroke="currentColor" stroke-width="1" d="M237.8 55.2C237.8 56.084 237.084 56.8 236.2 56.8C235.316 56.8 234.6 56.084 234.6 55.2C234.6 54.316 235.316 53.6 236.2 53.6C237.084 53.6 237.8 54.316 237.8 55.2L237.8 55.2Z"/>
<path fill="currentColor" stroke="currentColor" stroke-width="1" d="M198.1 28.5C198.1 29.163 197.563 29.7 196.9 29.7C196.237 29.7 195.7 29.163 195.7 28.5C195.7 27.837 196.237 27.3 196.9 27.3C197.563 27.3 198.1 27.837 198.1 28.5L198.1 28.5Z"/>
<path fill="currentColor" stroke="currentColor" stroke-width="1" d="M159.3 80.8C159.3 81.187 158.987 81.5 158.6 81.5C158.213 81.5 157.9 81.187 157.9 80.8C157.9 80.413 158.213 80.1 158.6 80.1C158.987 80.1 159.3 80.413 159.3 80.8L159.3 80.8Z"/>
<path fill="none" stroke="currentColor" stroke-width="1.553" stroke-linejoin="round" opacity="0.5" d="M210.4 50.5C210.4 50.5 214.9 53 217 54.6C217 54.6 220.5 55.9 222 53.3L222 46"/>
<path fill="none" stroke="currentColor" stroke-width="1.553" stroke-linejoin="round" d="M274 39.7L274 50.6"/>
<path fill="none" stroke="currentColor" stroke-width="1.553" stroke-linejoin="round" d="M335.6 39.5C335.6 40.4 334.9 41.1 334 41.1L297.6 41.1C296.7 41.1 296 40.4 296 39.5L296 39.2C296 38.3 296.7 37.6 297.6 37.6L334 37.6C334.9 37.6 335.6 38.3 335.6 39.2L335.6 39.5L335.6 39.5Z"/>
<path fill="none" stroke="currentColor" stroke-width="1.553" stroke-linejoin="round" d="M357.4 55L357.4 49.6C357.4 47.6 359 45.2 360.9 45.2L360.9 45.2C362.9 45.2 364.4 47.7 364.4 49.6L364.4 55.5"/>
<path fill="currentColor" stroke="currentColor" stroke-width="1" d="M216.6 34.9L224 34.9L224 40.1L216.6 40.1L216.6 34.9Z"/>
<path fill="none" stroke="currentColor" stroke-width="1.553" stroke-linejoin="round" d="M226.4 45.2C226.4 46 225.7 46.6 224.8 46.6L215.4 46.6C214.5 46.6 213.8 46 213.8 45.2L213.8 39.1C213.8 38.3 214.5 37.7 215.4 37.7L224.8 37.7C225.7 37.7 226.4 38.3 226.4 39.1L226.4 45.2L226.4 45.2Z"/>
<path fill="none" stroke="currentColor" stroke-width="1.553" stroke-linejoin="round" d="M163.9 82.2L195.4 82.2"/>
<path fill="none" stroke="currentColor" stroke-width="1.553" stroke-linejoin="round" d="M148.2 85.2L158.1 79.2C158.9 78.8 159.9 79 160.4 79.8L160.4 79.8C160.8 80.6 160.6 81.6 159.8 82.1L149.5 87.4L148.2 85.2L148.2 85.2Z"/>
<path fill="none" stroke="currentColor" stroke-width="1.553" stroke-linejoin="round" d="M196.4 101.7L184.3 101.7L183.8 104.8L165.5 108.4L161.5 111.5L132.4 113.4C130 113.1 130.8 110.6 130.7 108.4C131.3 103.1 131.6 99.1 131.6 99.1L130.4 96.5L131.2 80.5L141.3 80.5L148.8 76.5L163.3 76.5L163.3 81.9L163.3 91.4L195.4 91.4"/>
<path fill="none" stroke="currentColor" stroke-width="1.553" stroke-linejoin="round" stroke-linecap="round" d="M206.6 28.8C206.6 28.8 199.6 24.5 197.7 24.2C195.5 24.2 193.2 26.1 193.2 28.4C193.2 30.7 195 32.4 197.2 32.4C198.6 32.4 199.9 31.7 200.6 30.5L206.2 34"/>
<path fill="none" stroke="currentColor" stroke-width="1.553" stroke-linejoin="round" d="M290.1 55.5L290.1 61.2L361.3 61.2"/>
<path fill="none" stroke="currentColor" stroke-width="1.553" stroke-linejoin="round" d="M291.4 54.9L365.4 54.9"/>
<path fill="none" stroke="currentColor" stroke-width="1.553" stroke-linejoin="round" d="M201.1 79.7L201.1 92.4L213.3 92.4C213.3 92.4 219 92.7 219.1 97.3"/>
<path fill="none" stroke="currentColor" stroke-width="1.553" stroke-linejoin="round" d="M354.9 67.4L346.7 67.4C346.7 67.4 347.7 69.6 347.3 71.2C346.8 73 344 74.1 344 74.1L348.1 89.1C348.5 91.4 350.7 91.5 350.7 91.5L353.8 91.6L354.9 67.4L354.9 67.4Z"/></symbol>
<symbol id="honors-roundhonor-mostkills" viewBox="0 0 512 128"><path fill="none" stroke="currentColor" stroke-width="1.553" stroke-linejoin="round" d="M214 45.7L208 45.7C208 45.7 210.2 43.5 207 34.7C207 34.7 203 25.4 214.1 24L255.9 24L255.9 32L248 32C248 32 229.7 32.8 229.6 45.6L226.4 45.6"/>
<path fill="none" stroke="currentColor" stroke-width="1.553" stroke-linejoin="round" d="M356.3 48.2L356.3 44C356.3 32.9 330.8 34.1 330.8 34.1L285.5 34.1C281.7 34.1 278.3 35.7 276.5 38.8L268.8 38.8"/>
<path fill="none" stroke="currentColor" stroke-width="1.553" stroke-linejoin="round" d="M271.3 40.1L271.3 26.6L362.7 26.6L362.7 14.5L370.4 14.5L370.4 26.6L370.9 26.6L375.1 26.6L381.7 25.3L381.7 53.9L375.3 52.6L371.4 52.6L366.2 52.7L366.2 59.2L361.7 60.7L359 97.1L339.7 97.1L336.3 84.7C335.8 83.1 336.6 81.3 336.6 81.3L338 79C339 77.8 338.4 76.2 338.4 76.2L336.3 70.1L317.5 61"/>
<path fill="none" stroke="currentColor" stroke-width="1.553" stroke-linejoin="round" d="M363.2 14.5L369.8 14.5L369.8 29.8L363.2 29.8L363.2 14.5Z"/>
<path fill="none" stroke="currentColor" stroke-width="1.553" stroke-linejoin="round" d="M255.8 28.2L270.5 28.2"/>
<path fill="none" stroke="currentColor" stroke-width="1.553" stroke-linejoin="round" d="M255.8 32.6L270.5 32.6"/>
<path fill="none" stroke="currentColor" stroke-width="1.553" stroke-linejoin="round" d="M210.1 46.7L210.1 53.8C210.1 53.8 218.6 57.3 216.5 63.1L204.9 79.8L201.8 79.9L195.9 79.9L195.9 101.7L216.8 101.7L234.2 68.8C234.2 68.8 237.1 62.8 242.7 62.6L256.2 62.6C256.2 62.6 257.9 59.1 264.1 59.1L279.3 59.1L279.3 55.1"/>
<path fill="none" stroke="currentColor" stroke-width="1.553" stroke-linejoin="round" d="M230.7 76.8C230.7 76.8 234.8 79.7 237.8 80.1C240.4 80.4 248.3 80.1 248.3 80.1C248.3 80.1 256.4 78.8 256.4 72.4L256.4 62.6"/>
<path fill="none" stroke="currentColor" stroke-width="1.553" stroke-linejoin="round" d="M241.7 62.6C241.7 62.6 250.1 65.7 250.2 70.6C250.2 70.6 250.3 75.1 246.2 75.1L239.9 75.1C239.9 75.1 232.6 74.8 233.5 70.2"/>
<path fill="currentColor" stroke="currentColor" stroke-width="1" d="M236.9 65.7C236.9 65.7 236.6 70 241.7 69.8C242.5 69.8 242 71.3 240.7 71.5C240.7 71.5 236.4 72.1 235 68.4L236.9 65.7L236.9 65.7Z"/>
<path fill="none" stroke="currentColor" stroke-width="1.553" stroke-linejoin="round" opacity="0.5" d="M235.2 36.5L240.8 36.5C242.5 36.5 243.9 37.8 243.9 39.3L243.9 39.3C243.9 40.8 242.5 42.1 240.8 42.1L230.5 42.1"/>
<path fill="none" stroke="currentColor" stroke-width="1.553" stroke-linejoin="round" d="M229.4 45.6L267.6 45.6"/>
<path fill="none" stroke="currentColor" stroke-width="1.553" stroke-linejoin="round" stroke-linecap="round" d="M355.9 47.5L315.1 47.5L315.1 50.1L297.2 50.1L290.1 55.5L282.1 55.5C276.2 55.5 274.2 52.9 273.5 51.1L268 51.1L268 38.8L271.1 38.8"/>
<path fill="none" stroke="currentColor" stroke-width="1.553" stroke-linejoin="round" d="M256.2 32.3L256.2 45"/>
<path fill="none" stroke="currentColor" stroke-width="1.553" stroke-linejoin="round" d="M228.7 56.9C228.7 57.1 228.8 57.3 228.8 57.5C228.8 57.5 229.9 62.7 236.4 64.7"/>
<path fill="none" stroke="currentColor" stroke-width="1.553" stroke-linejoin="round" d="M228.7 53C229.5 49.7 232 47.9 232 47.9C232 47.9 233.4 46.4 236.9 46.3"/>
<path fill="none" stroke="currentColor" stroke-width="1.553" stroke-linejoin="round" stroke-linecap="round" d="M236.4 52.1C238.1 52.1 239.5 53.5 239.5 55.2C239.5 56.9 238.1 58.3 236.4 58.3"/>
<path fill="none" stroke="currentColor" stroke-width="1.553" stroke-linejoin="round" stroke-linecap="round" d="M225 56.5C224.3 56.5 223.7 55.9 223.7 55.2C223.7 54.5 224.2 54 224.8 53.9"/>
<path fill="none" stroke="currentColor" stroke-width="1.553" stroke-linejoin="round" stroke-linecap="round" d="M224.9 53.8L236.2 52.1"/>
<path fill="none" stroke="currentColor" stroke-width="1.553" stroke-linejoin="round" stroke-linecap="round" d="M225 56.5L236.2 58.2"/>
<path fill="currentColor" stroke="currentColor" stroke-width="1" d="M237.8 55.2C237.8 56.084 237.084 56.8 236.2 56.8C235.316 56.8 234.6 56.084 234.6 55.2C234.6 54.316 235.316 53.6 236.2 53.6C237.084 53.6 237.8 54.316 237.8 55.2L237.8 55.2Z"/>
<path fill="currentColor" stroke="currentColor" stroke-width="1" d="M198.1 28.5C198.1 29.163 197.563 29.7 196.9 29.7C196.237 29.7 195.7 29.163 195.7 28.5C195.7 27.837 196.237 27.3 196.9 27.3C197.563 27.3 198.1 27.837 198.1 28.5L198.1 28.5Z"/>
<path fill="currentColor" stroke="currentColor" stroke-width="1" d="M159.3 80.8C159.3 81.187 158.987 81.5 158.6 81.5C158.213 81.5 157.9 81.187 157.9 80.8C157.9 80.413 158.213 80.1 158.6 80.1C158.987 80.1 159.3 80.413 159.3 80.8L159.3 80.8Z"/>
<path fill="none" stroke="currentColor" stroke-width="1.553" stroke-linejoin="round" opacity="0.5" d="M210.4 50.5C210.4 50.5 214.9 53 217 54.6C217 54.6 220.5 55.9 222 53.3L222 46"/>
<path fill="none" stroke="currentColor" stroke-width="1.553" stroke-linejoin="round" d="M274 39.7L274 50.6"/>
<path fill="none" stroke="currentColor" stroke-width="1.553" stroke-linejoin="round" d="M335.6 39.5C335.6 40.4 334.9 41.1 334 41.1L297.6 41.1C296.7 41.1 296 40.4 296 39.5L296 39.2C296 38.3 296.7 37.6 297.6 37.6L334 37.6C334.9 37.6 335.6 38.3 335.6 39.2L335.6 39.5L335.6 39.5Z"/>
<path fill="none" stroke="currentColor" stroke-width="1.553" stroke-linejoin="round" d="M357.4 55L357.4 49.6C357.4 47.6 359 45.2 360.9 45.2L360.9 45.2C362.9 45.2 364.4 47.7 364.4 49.6L364.4 55.5"/>
<path fill="currentColor" stroke="currentColor" stroke-width="1" d="M216.6 34.9L224 34.9L224 40.1L216.6 40.1L216.6 34.9Z"/>
<path fill="none" stroke="currentColor" stroke-width="1.553" stroke-linejoin="round" d="M226.4 45.2C226.4 46 225.7 46.6 224.8 46.6L215.4 46.6C214.5 46.6 213.8 46 213.8 45.2L213.8 39.1C213.8 38.3 214.5 37.7 215.4 37.7L224.8 37.7C225.7 37.7 226.4 38.3 226.4 39.1L226.4 45.2L226.4 45.2Z"/>
<path fill="none" stroke="currentColor" stroke-width="1.553" stroke-linejoin="round" d="M163.9 82.2L195.4 82.2"/>
<path fill="none" stroke="currentColor" stroke-width="1.553" stroke-linejoin="round" d="M148.2 85.2L158.1 79.2C158.9 78.8 159.9 79 160.4 79.8L160.4 79.8C160.8 80.6 160.6 81.6 159.8 82.1L149.5 87.4L148.2 85.2L148.2 85.2Z"/>
<path fill="none" stroke="currentColor" stroke-width="1.553" stroke-linejoin="round" d="M196.4 101.7L184.3 101.7L183.8 104.8L165.5 108.4L161.5 111.5L132.4 113.4C130 113.1 130.8 110.6 130.7 108.4C131.3 103.1 131.6 99.1 131.6 99.1L130.4 96.5L131.2 80.5L141.3 80.5L148.8 76.5L163.3 76.5L163.3 81.9L163.3 91.4L195.4 91.4"/>
<path fill="none" stroke="currentColor" stroke-width="1.553" stroke-linejoin="round" stroke-linecap="round" d="M206.6 28.8C206.6 28.8 199.6 24.5 197.7 24.2C195.5 24.2 193.2 26.1 193.2 28.4C193.2 30.7 195 32.4 197.2 32.4C198.6 32.4 199.9 31.7 200.6 30.5L206.2 34"/>
<path fill="none" stroke="currentColor" stroke-width="1.553" stroke-linejoin="round" d="M290.1 55.5L290.1 61.2L361.3 61.2"/>
<path fill="none" stroke="currentColor" stroke-width="1.553" stroke-linejoin="round" d="M291.4 54.9L365.4 54.9"/>
<path fill="none" stroke="currentColor" stroke-width="1.553" stroke-linejoin="round" d="M201.1 79.7L201.1 92.4L213.3 92.4C213.3 92.4 219 92.7 219.1 97.3"/>
<path fill="none" stroke="currentColor" stroke-width="1.553" stroke-linejoin="round" d="M354.9 67.4L346.7 67.4C346.7 67.4 347.7 69.6 347.3 71.2C346.8 73 344 74.1 344 74.1L348.1 89.1C348.5 91.4 350.7 91.5 350.7 91.5L353.8 91.6L354.9 67.4L354.9 67.4Z"/></symbol>
<symbol id="honors-roundhonor-totalscore" viewBox="0 0 512 512"><path fill="currentColor" d="M433.9 370.5L448 379.9C409.2 439.9 343.1 480.5 267.3 484.2L266.2 467.3C280.6 466.6 294.5 464.5 308 461.1L303.8 444.6C339.2 435.6 370.7 417 395.4 391.7L407.5 403.5C417.4 393.5 426.2 382.4 433.9 370.5L433.9 370.5ZM78.1 370.5C85.8 382.4 94.6 393.5 104.5 403.6L116.6 391.8C141.3 417.1 172.8 435.8 208.1 444.7L203.9 461.2C217.4 464.6 231.3 466.7 245.7 467.4L244.6 484.3C168.8 480.6 102.7 440 63.9 380L78.1 370.5L78.1 370.5ZM459.4 151.7C475.5 183 484.6 218.5 484.6 256C484.6 293.5 475.5 329 459.4 360.3L444.2 352.8C450.6 340.4 455.9 327.2 459.7 313.5L443.4 308.9C448.1 292.1 450.7 274.3 450.7 256C450.7 237.7 448.1 219.9 443.4 203.1L459.7 198.5C455.8 184.7 450.6 171.6 444.2 159.1L459.4 151.7L459.4 151.7ZM52.6 151.7L67.8 159.2C61.4 171.6 56.1 184.8 52.2 198.6L68.5 203.2C63.8 220 61.2 237.7 61.2 256.1C61.2 274.4 63.8 292.2 68.5 309L52.2 313.6C56.1 327.3 61.3 340.5 67.8 352.9L52.6 360.4C36.6 329 27.5 293.6 27.5 256C27.5 218.4 36.6 183 52.6 151.7L52.6 151.7ZM256 102.4C263.2 102.4 270.4 102.8 276.3 103.7L267 180.7C286.5 183.5 303.5 193.7 315.3 208.4L377.1 162.1C384.6 171.4 393.1 186.1 397.6 197.2L326.6 227.6C330.2 236.4 332.2 246 332.2 256.1C332.2 265.8 330.4 275.1 327.1 283.7L397.5 313.8C393.1 325 384.7 339.6 377.3 349L315.9 303C304.1 318 286.9 328.4 267.2 331.4L276.3 407.2C264.4 409 247.5 409 235.7 407.3L244.8 331.4C225.1 328.5 207.9 318 196.1 303L134.9 348.9C127.4 339.5 118.9 324.9 114.4 313.8L185 283.6C181.7 275.1 179.9 265.8 179.9 256.1C179.9 246 181.9 236.4 185.5 227.5L114.7 197.2C119 186 127.5 171.4 134.9 162L196.8 208.4C208.6 193.7 225.6 183.6 245.1 180.7L235.8 103.8C241.6 102.8 248.8 102.4 256 102.4L256 102.4ZM267.3 27.8C343.1 31.5 409.2 72.1 448 132.1L433.8 141.4C426.1 129.5 417.3 118.4 407.5 108.3L395.4 120.1C370.7 94.8 339.2 76.1 303.8 67.2L308 50.8C294.5 47.4 280.6 45.3 266.2 44.6L267.3 27.8L267.3 27.8ZM244.3 27.8C244.4 27.8 244.6 27.8 244.7 27.8L245.8 44.7C231.4 45.4 217.5 47.5 204 50.9L208.2 67.3C172.8 76.3 141.4 94.9 116.7 120.2L104.6 108.3C94.7 118.4 85.9 129.5 78.2 141.4L64 132.1C102.7 72.2 168.6 31.6 244.3 27.8L244.3 27.8ZM256 7.1C118.6 7.1 7.1 118.6 7.1 256C7.1 393.4 118.6 504.9 256 504.9C393.4 504.9 504.9 393.4 504.9 256C504.9 118.6 393.4 7.1 256 7.1L256 7.1Z"/></symbol>
</svg>
