<svg xmlns="http://www.w3.org/2000/svg" style="display:none">
<symbol id="eaaccess-ea-access-trial" viewBox="0 0 225.2 73.1"><path fill="currentColor" d="M36.9 67.3C20 67.3 6.3 53.6 6.3 36.7C6.3 19.8 20 6.1 36.9 6.1C53.8 6.1 67.5 19.8 67.5 36.7C67.5 53.6 53.8 67.3 36.9 67.3L36.9 67.3ZM37 3C18.3 3 3.2 18.1 3.2 36.7C3.2 55.3 18.3 70.4 36.9 70.4C55.5 70.4 70.6 55.3 70.6 36.7C70.7 18.1 55.6 3 37 3L37 3Z"/>
<path fill="currentColor" d="M51.9 23.7L52.3 24.9L52.6 24.9L52.9 23.7L52.9 24.9L53.2 24.9L53.2 23.5L52.8 23.5L52.4 24.5L52.1 23.5L51.7 23.5L51.7 24.9L51.9 24.9L51.9 23.7Z"/>
<path fill="currentColor" d="M50.7 24.9L51 24.9L51 23.7L51.4 23.7L51.4 23.5L50.2 23.5L50.2 23.7L50.7 23.7L50.7 24.9Z"/>
<path fill="currentColor" d="M42.9 23.5L23.5 23.5L20.6 28.2L40 28.2L42.9 23.5Z"/>
<path fill="currentColor" d="M46.8 23.5L35 42.3L21.6 42.3L24.6 37.6L33.6 37.6L36.6 32.9L17.6 32.9L14.7 37.6L19 37.6L13.1 47L37.6 47L46.8 32.4L50.1 37.6L47.3 37.6L44.4 42.3L53 42.3L55.9 47L61.5 47L46.8 23.5Z"/>
<path fill="currentColor" d="M132 26.4L129.9 28.8C128.1 27 125.9 26.1 123.1 26.1C120.5 26.1 118.4 27 116.7 28.7C115 30.4 114.2 32.6 114.2 35.2C114.2 37.8 115 40 116.7 41.8C118.4 43.5 120.5 44.4 123.1 44.4C125.8 44.4 128.1 43.5 129.9 41.7L132 44.1C129.7 46.5 126.8 47.6 123.1 47.6C119.6 47.6 116.7 46.4 114.3 44.1C111.9 41.7 110.7 38.8 110.7 35.2C110.7 31.7 111.9 28.8 114.3 26.4C116.7 24 119.6 22.8 123.1 22.8C126.8 22.9 129.7 24 132 26.4"/>
<path fill="currentColor" d="M155.5 26.4L153.4 28.8C151.6 27 149.4 26.1 146.6 26.1C144 26.1 141.9 27 140.2 28.7C138.5 30.4 137.7 32.6 137.7 35.2C137.7 37.8 138.5 40 140.2 41.8C141.9 43.5 144 44.4 146.6 44.4C149.3 44.4 151.6 43.5 153.4 41.7L155.5 44.1C153.2 46.5 150.3 47.6 146.6 47.6C143.1 47.6 140.2 46.4 137.8 44.1C135.4 41.7 134.2 38.8 134.2 35.2C134.2 31.7 135.4 28.8 137.8 26.4C140.2 24 143.1 22.8 146.6 22.8C150.3 22.9 153.2 24 155.5 26.4"/>
<path fill="currentColor" d="M177.4 33C177.4 31.1 176.7 29.5 175.3 28.1C173.9 26.8 172.2 26.1 170.3 26.1C168.2 26.1 166.3 26.8 164.8 28.1C163.3 29.4 162.4 31.1 162.3 33L177.4 33L177.4 33ZM158.6 35.4C158.6 31.6 159.7 28.6 161.9 26.4C164.1 24.1 166.9 23 170.3 23C173.5 23 176 24.1 178 26.4C180 28.6 181 31.4 181 34.6L181 36.1L162 36.1C162.2 41.2 165.5 44.5 170.3 44.5C173.5 44.5 175.4 43.5 177.5 41.3L179.8 43.5C177.3 46.2 174.2 47.6 170.3 47.6C166.8 47.6 164 46.5 161.8 44.3C159.6 42.1 158.6 39.2 158.6 35.6L158.6 35.4L158.6 35.4Z"/>
<path fill="currentColor" d="M198.1 29C197.1 27.1 195.4 25.8 193 25.8C190.7 25.8 188.1 26.8 188.1 29.3C188.1 31.5 189.7 32.3 192.7 33L196.1 33.8C199.4 34.6 201.8 36.9 201.8 40.2C201.8 45.3 197.2 47.4 192.7 47.4C189.1 47.4 185.9 46.1 183.7 42.8L186.6 40.8C188 42.9 190 44.3 192.8 44.3C195.5 44.3 198.3 43.1 198.3 40.4C198.3 38 196.3 37.2 193.8 36.6L190.6 35.8C189 35.4 184.6 34.1 184.6 29.6C184.6 24.7 188.9 22.5 193.3 22.5C196.6 22.5 199.6 23.7 201.1 26.7L198.1 29L198.1 29Z"/>
<path fill="currentColor" d="M219.5 29C218.5 27.1 216.8 25.8 214.4 25.8C212.1 25.8 209.5 26.8 209.5 29.3C209.5 31.5 211.1 32.3 214.1 33L217.5 33.8C220.8 34.6 223.2 36.9 223.2 40.2C223.2 45.3 218.6 47.4 214.1 47.4C210.5 47.4 207.3 46.1 205.1 42.8L208 40.8C209.4 42.9 211.4 44.3 214.2 44.3C216.9 44.3 219.7 43.1 219.7 40.4C219.7 38 217.7 37.2 215.2 36.6L212 35.8C210.4 35.4 206 34.1 206 29.6C206 24.7 210.3 22.5 214.7 22.5C218 22.5 221 23.7 222.5 26.7L219.5 29L219.5 29Z"/>
<path fill="currentColor" d="M100.5 41.8C98.9 43.5 96.8 44.4 94.3 44.4C91.9 44.4 89.9 43.5 88.3 41.8C86.7 40 85.9 37.9 85.9 35.2C85.9 32.6 86.7 30.4 88.3 28.7C89.9 26.9 91.9 26.1 94.3 26.1C96.8 26.1 98.9 27 100.5 28.7C102.2 30.4 103 32.6 103 35.2C103 37.9 102.2 40.1 100.5 41.8L100.5 41.8ZM107.7 44.5C106.4 44.5 106.1 43.9 106.1 42L106.1 41.6L106.1 34.7L106.1 23.6L102.7 23.6L102.7 27.1C101.4 24.7 98.6 22.9 94.4 22.9C91.1 22.9 88.3 24.1 86 26.5C83.7 28.9 82.6 31.8 82.6 35.3C82.6 38.8 83.8 41.8 86 44.2C88.3 46.6 91.1 47.7 94.4 47.7C98.2 47.7 101 46.4 102.8 43.7C103.3 47.2 105.5 47.6 107.2 47.6C107.8 47.6 108.7 47.6 108.7 47.6L108.7 44.6C108.6 44.5 107.9 44.5 107.7 44.5L107.7 44.5Z"/>
<path fill="currentColor" d="M182.2 59.2L182.2 70.3L179.5 70.3L179.5 59.2L176.5 59.2L176.5 57.2L185.2 57.2L185.2 59.2L182.2 59.2L182.2 59.2Z"/>
<path fill="currentColor" d="M192.7 61C192.7 60.3 192.5 59.9 192.2 59.6C191.9 59.3 191.4 59.2 190.8 59.2L189.7 59.2L189.7 63L190.7 63C191.4 63 192 62.9 192.3 62.6C192.5 62.3 192.7 61.7 192.7 61L192.7 61ZM192.7 70.3C192.7 70 192.6 69.7 192.6 69.4C192.6 69.1 192.6 68.7 192.6 68.3C192.6 67.6 192.6 67.1 192.5 66.7C192.4 65.9 192.3 65.4 192.1 65.2C191.9 64.9 191.4 64.8 190.7 64.8L189.8 64.8L189.8 70.3L187 70.3L187 57.3L191.5 57.3C192.8 57.3 193.8 57.5 194.4 57.9C195.2 58.4 195.6 59.4 195.6 60.7C195.6 62.5 194.8 63.6 193.3 63.9C194.2 64 194.8 64.3 195.1 64.9C195.3 65.3 195.4 66 195.4 67.1C195.4 67.4 195.4 67.9 195.5 68.6C195.5 69.3 195.6 69.9 195.7 70.3L192.7 70.3L192.7 70.3Z"/>
<path fill="currentColor" d="M198.1 70.3L198.1 57.3L200.8 57.3L200.8 70.4L198.1 70.4L198.1 70.3Z"/>
<path fill="currentColor" d="M207.9 59.3L206.5 65.5L209.3 65.5L207.9 59.3L207.9 59.3ZM210.6 70.3L209.9 67.4L206.1 67.4L205.4 70.3L202.7 70.3L206.3 57.2L210 57.2L213.6 70.3L210.6 70.3L210.6 70.3Z"/>
<path fill="currentColor" d="M215.1 70.3L215.1 57.3L217.8 57.3L217.8 68.4L221.9 68.4L221.9 70.4L215.1 70.4L215.1 70.3Z"/></symbol>
</svg>
