<svg xmlns="http://www.w3.org/2000/svg" style="display:none">
<symbol id="settings-settings-credits" viewBox="0 0 480 280"><path fill="none" stroke="currentColor" stroke-width="3" stroke-linejoin="round" d="M299.8 163.8C323.8 135.9 320 99.6 307.1 82C316.3 107.6 307.8 133.7 289.1 144.1C298.8 136.1 324.4 82.4 275 48.1C274.8 48 274.6 47.8 274.4 47.7L274.7 48C294.8 64.8 285.6 98.5 268.6 112.6C293 143.6 269.8 185.2 243 194C243 182.7 242.9 172.1 242.9 162.1L256.5 173L245.2 158.9L267.9 156.4L245.2 153.9L256.5 139.8L242.8 150.8C242.2 76 240 40 240 40C240 40 237.8 75.9 237.1 150.7L223.4 139.7L234.7 153.8L212 156.3L234.7 158.8L223.4 173L237 162.1C236.9 172.1 236.9 182.7 236.9 194C210.1 185.2 186.9 143.6 211.3 112.6C194.3 98.5 185.1 64.7 205.2 48L205.5 47.7C205.3 47.8 205.1 48 204.9 48.1C155.6 82.4 181.1 136.1 190.8 144.1C172.1 133.7 163.6 107.6 172.8 82C159.9 99.6 156.1 135.9 180.1 163.8C171 158.4 166.3 149.5 161.5 136.1C168.9 172.6 201.2 200 239.9 200C278.6 200 310.8 172.6 318.3 136.1C313.6 149.5 308.9 158.3 299.8 163.8L299.8 163.8Z"/></symbol>
</svg>
